<?xml version="1.0" encoding="UTF-8"?>
<svg id="Camada_2" data-name="Camada 2" xmlns="http://www.w3.org/2000/svg" viewBox="0 0 1920 1080">
  <defs>
    <style>
      .cls-1 {
        fill: #5c57b4;
      }
    </style>
  </defs>
  <path class="cls-1" d="M624.97,257.22c283.65-27.29,500.12,213.62,425.99,492.61-77.6,292.02-454.88,384.73-662.31,164.66-211.71-224.61-76.98-627.12,236.33-657.26ZM739.41,330.55c-42.41-3.91-85.07-6.75-127.36.06-4.95.8-7.13-2.52-5.92,5.79.8,5.48,24.62,53.21,27.43,54.92,16.99,1.08,72.5,7.81,81.94-4.37,3.92-5.06,26.47-54.24,23.9-56.39ZM914.41,422.03c-14.38-15.39-87.64-75.24-106.02-72.22-15.51,35.39-40.92,69.92-49.1,107.43l48.67,347.99c-22.75,24.84-92.51,122.44-119.24,130.94-31.5,10.01-53.13-23.82-72.78-45.2-14.83-16.14-70.09-79.46-72.3-96.41l42.95-328.92c1.59-40.12-31.1-75.62-45.58-111.91-86.26,26.84-155.09,116.9-176.62,203.28-63.95,256.46,151.45,473.64,409.39,397.64,225.02-66.3,299.53-362.66,140.64-532.62ZM669.4,855.1l13.48-3.11,56.58-68.9-39.87-316.7c-4.1-12.36-38.98-4.43-50.25-6.5l-39.42,311.77c-.75,24.57,49.21,59.45,59.49,83.44Z"/>
</svg>