<?xml version="1.0" encoding="UTF-8"?>
<svg id="Camada_2" data-name="Camada 2" xmlns="http://www.w3.org/2000/svg" viewBox="0 0 1920 1080">
  <defs>
    <style>
      .cls-1 {
        fill: #5c57b4;
      }
    </style>
  </defs>
  <path class="cls-1" d="M842.53,187.64c271.46-25.26,483.03,208.65,407.34,476.21-81.01,286.37-452.63,363.36-645.75,134.87-183.08-216.6-48.88-584.35,238.41-611.08ZM1103.48,787.2c197.61-187.88,72.92-533.31-205.34-538.05-276.91-4.72-411.65,328.08-230.73,524.54,4.3,4.67,7.67,10.92,15.2,9.67v-97.57c0-7.1,16.68-32.25,23.19-38.03,67.72-60.17,315.25-62.45,378.53,3.62,4.49,4.69,19.16,29.6,19.16,34.41v101.39Z"/>
  <path class="cls-1" d="M865.4,325.15c65.08-10.19,135.36,29.27,145.39,97.65,18.58,126.59-141.25,191.61-214.84,92.4-48.37-65.2-15.35-176.78,69.45-190.05Z"/>
</svg>