<?xml version="1.0" encoding="UTF-8"?>
<svg id="Camada_2" data-name="Camada 2" xmlns="http://www.w3.org/2000/svg" viewBox="0 0 1920 1080">
  <defs>
    <style>
      .cls-1 {
        fill: #5c57b4;
      }
    </style>
  </defs>
  <path class="cls-1" d="M1067.67,621.49c-11.57,19.59,69.03,135.05,7.12,141.13-22.64,2.22-83.63-50.33-109.2-57.76-14.69-.05-69.46,46.38-88.79,52.75-22.39,7.38-45.9-3.85-45.1-28.69.66-20.54,34.99-90.74,31.97-102.6-15.68-19.65-84.33-56.89-89.16-78.64-12.51-56.36,97.5-33.37,127.91-43.1,10.85-25.11,21.17-79.74,37.51-99.4,10.83-13.04,35.5-14.65,46.13-1.3,12.6,15.81,35.58,98.68,42.27,102.7,28.31,6.93,113.26-11.13,124.24,23.92,2.7,8.61,2.97,16.6-1.6,24.53-10.87,18.85-64.65,51.42-83.29,66.47Z"/>
  <path class="cls-1" d="M926.81,195.27c282.51-22.2,489.37,231.15,410.63,504.05-93.51,324.08-542.58,381.02-710.13,86.68-141.27-248.18,9.89-567.97,299.5-590.73ZM923.57,250.01c-235.57,22.66-362.4,286.1-256.6,493.1,134.43,263.02,525.81,229.14,615.78-50.17,76.67-238.04-110.5-466.86-359.17-442.93Z"/>
</svg>