<?xml version="1.0" encoding="UTF-8"?>
<svg id="Camada_2" data-name="Camada 2" xmlns="http://www.w3.org/2000/svg" viewBox="0 0 1920 1080">
  <defs>
    <style>
      .cls-1 {
        fill: #5c57b4;
      }
    </style>
  </defs>
  <path class="cls-1" d="M1192.09,490.43c19.98,37.56,31.3,80.45,31.3,126,0,148.64-120.47,269.11-269.06,269.11s-269.11-120.47-269.11-269.11,120.47-269.06,269.11-269.06c44.03,0,85.56,10.54,122.24,29.27l-72.68,72.83c-15.7-4.64-32.35-7.15-49.56-7.15-96.16,0-174.1,77.95-174.1,174.1s77.95,174.1,174.1,174.1,174.1-77.95,174.1-174.1c0-18.21-2.76-35.74-7.93-52.23l-107.63,110.82c-.16.16-.31.31-.47.42-14.92,14.77-35.37,23.84-58.07,23.84-45.76,0-82.85-37.1-82.85-82.85,0-22.8,9.23-43.41,24.16-58.38,14.97-15.08,35.74-24.42,58.69-24.42s42.1,8.61,56.92,22.7l63.29-65.9,65.74-68.45,69.91-72.84,72.22-75.2,200.74-105.08h-139.29l-11.26-130.84-106.49,188.6.08.08-75.74,75.9c-56.87-35.58-124.07-56.19-196.12-56.19-204.36,0-370.01,165.65-370.01,370.01s165.65,370.01,370.01,370.01,370.01-165.65,370.01-370.01c0-74.14-21.81-143.16-59.37-201.07l-72.89,75.08Z"/>
</svg>