<?xml version="1.0" encoding="UTF-8"?>
<svg id="Camada_2" data-name="Camada 2" xmlns="http://www.w3.org/2000/svg" viewBox="0 0 1920 1080">
  <defs>
    <style>
      .cls-1 {
        fill: #5c57b4;
      }
    </style>
  </defs>
  <path class="cls-1" d="M894,104.67c265.12-21.11,498.48,195.69,486.46,463.55-15.73,350.32-407.27,543.53-698.68,350.61-349.51-231.37-198.49-781.46,212.22-814.17ZM981.99,914.11c345.16-42.52,438.88-506.28,135.89-678.75-283.08-161.14-618.48,87.71-541.38,403.95,85.31,349.94,597.02,250.02,555.35-97.25-20.26-168.81-244.75-240.16-348.86-99.46-74.21,100.28-20.2,263.99,115.66,230.18,41.84-10.41,94-71.43,60.51-109.18-40.06-45.17-48.8,56.59-94.27,30.1-49.3-28.72-16.59-100.42,25.17-121.91,121.26-62.39,213.05,110.52,121.73,222.51-106.93,131.13-315.64,58.08-340.87-103.59-47.21-302.53,373.25-433.33,512.04-150.15,94.33,192.47-14.39,377.47-190.93,463.23-6.21,3.01-12.63-2.93-10.04,10.33Z"/>
</svg>