<?xml version="1.0" encoding="UTF-8"?>
<svg id="Camada_2" data-name="Camada 2" xmlns="http://www.w3.org/2000/svg" viewBox="0 0 1920 1080">
  <defs>
    <style>
      .cls-1 {
        fill: #5c57b4;
      }
    </style>
  </defs>
  <path class="cls-1" d="M783.56,323.12c120.41-104.18,314.53-114.04,441.84-16.1,290.84,223.73,88.13,701.74-283.93,626.37-277.74-56.26-371.33-425.61-157.91-610.26ZM971.07,280.8c-185.05,17.18-299.59,218.2-252.56,391.94,81.05,299.36,505.35,305.4,592.41,7.99,66.39-226.81-108.84-421.38-339.85-399.93Z"/>
  <path class="cls-1" d="M1019.94,658.64l-1.73,8.81c-3.67.26-7.2-.15-10.66-1.41-10.95-3.97-44.75-54.42-52.79-67.36-32.74-52.68-61.92-101.1-36.5-163.42,40.13-98.38,201.2-76.94,203.75,41.3,1.06,48.88-54.54,134.89-86.02,172.53-4.44,5.31-8.51,12.8-16.06,9.55ZM1000.87,418.77c-29.44,6.09-54.07,41.65-48.9,71.52,10.16,58.69,91.77,71.94,118.28,21.88,26.81-50.63-14.13-104.83-69.39-93.4Z"/>
  <path class="cls-1" d="M1205.27,577.97c2.79,2.88,4.96,17.49,5.86,22.68,7.16,41.29,20.28,106.57,21.99,146.26.41,9.57.7,22.45-7.52,28.81-3.28,2.54-8.68,2.08-10.11,3.26-.58.48,2.51,5.27-.25,7.07-3.95,2.57-17.23,4.17-22.69,4.6-111.35-6.75-232.48,8.61-342.65,0-22.99-1.8-41.95-6.58-44.88-32.77,19.32-48.72,34.69-101.04,54.94-149.63,2.4-5.77,8.76-22.94,13.95-23.78,27.37-.58,45.07.09,49.7,31.81l-30.63,3.03c-3.29,1.71-4.81,6.08-6.51,9.3-9.01,17.12-23.7,57.34-31.06,77.22-4.22,11.39-18.79,47.37-6.9,53.17h351.43c12.77-6.21,2.84-28.52-8.18-33.88-8.47-4.13-23.4-1.98-25.05-14.33,2.96-13.65,19.35-8.28,24.44-11.66,8.31-5.52-6.11-77.4-11.92-89.96l-60.42-6.41c1.4-9.43,4.74-23.83,14.3-27.73,9.04-3.69,67.39-2,72.16,2.92Z"/>
  <path class="cls-1" d="M1130.87,700.46c-3.06,7.69,13.04,20.1.09,28.62-5.74,3.78-51.96,7.17-55.87,1.61-17.2-24.5,43.88-27.32,55.78-30.23Z"/>
  <path class="cls-1" d="M953.21,673.82c9.76,28.13-11.77,31.78-35.18,29.19-12.98-33.14,7.79-36.76,35.18-29.19Z"/>
  <path class="cls-1" d="M1028.31,718.86v11.21c-12.52,2.51-43.75,12.88-47.7-4.19-3.66-15.84,38.42-11.21,47.7-7.01Z"/>
</svg>