<?xml version="1.0" encoding="UTF-8"?>
<svg id="Camada_2" data-name="Camada 2" xmlns="http://www.w3.org/2000/svg" viewBox="0 0 1920 1080">
  <defs>
    <style>
      .cls-1 {
        fill: #fff;
      }
    </style>
  </defs>
  <path class="cls-1" d="M931.93,994.66c-88.13,0-174.54-26.36-249.88-76.24-81.65-54.05-140.87-129.52-171.26-218.24-28.11-82.08-31.02-171.75-8.42-259.31,11.17-43.26,28.29-84.53,50.87-122.64,23.08-38.95,51.39-73.76,84.15-103.49,70.45-63.92,159.2-101.81,256.64-109.57,11.83-.94,23.84-1.42,35.67-1.42,62.25,0,122.91,12.76,180.29,37.94,55.64,24.41,105.18,59.1,147.25,103.1,40.88,42.76,72.34,91.91,93.5,146.09,22.11,56.62,31.94,116.28,29.2,177.32-2.77,61.73-17.25,120.32-43.05,174.15-24.42,50.96-58.23,96.26-100.5,134.65-41.14,37.36-88.49,66.59-140.73,86.87-52.64,20.44-107.73,30.8-163.74,30.8ZM939.8,284.24c48.88,0,96.12,12.93,136.62,37.39,44.96,27.15,80.65,67.24,106.09,119.14,38.9,79.36,45.21,162.71,18.25,241.04-31.52,91.59-107.68,172.33-208.95,221.53-1.86.9-3.76.96-5.44,1.01-1.91.06-3.56.11-4.57,1.38-1.09,1.36-1.18,3.98-.3,8.48l.09.46.46-.06c157.7-19.42,279.97-133.79,311.49-291.37,31.47-157.32-37.38-309.74-175.42-388.32-58.93-33.54-121.62-50.55-186.33-50.55-111.94,0-220.49,53.11-290.37,142.08-69.74,88.79-92.97,199.94-65.41,312.98,39.25,161,165.07,218.37,269.73,218.37,85.67,0,169.05-36.33,223.03-97.17,51.75-58.33,73.74-133.93,63.57-218.63-13.62-113.53-113.98-174.79-201.49-174.79-59.78,0-112.43,26.67-148.27,75.09-37.32,50.43-44.35,120.1-17.5,173.38,19.9,39.48,55.81,62.12,98.52,62.12,11.24,0,23.07-1.53,35.16-4.53,28.59-7.11,60.18-37.09,68.98-65.46,5.3-17.1,2.46-32.51-8.21-44.54-7.1-8-13.62-11.89-19.93-11.89-10.4,0-18.56,10.48-27.2,21.57-9.47,12.16-19.26,24.73-32.81,24.73-4.64,0-9.37-1.44-14.45-4.4-20.88-12.16-24.85-30.73-24.49-44.17.76-29.17,22.57-62.93,49.64-76.86,16.96-8.72,33.95-13.15,50.52-13.15,38.63,0,73.29,24.43,92.72,65.35,11.89,25.03,16.85,54.53,13.97,83.07-3.18,31.52-15.67,61.42-36.1,86.47-35.46,43.49-85.24,67.44-140.17,67.45h-.02c-45.95,0-91.5-16.52-128.27-46.52-38.53-31.44-63.93-75.57-71.53-124.28-6.45-41.33-4.39-80.99,6.11-117.88,9.76-34.27,26.56-65.5,49.95-92.82,51.29-59.91,130.66-95.68,212.33-95.68Z"/>
  <path d="M929.72,104.25c62.18,0,122.77,12.75,180.08,37.9,27.56,12.09,54.08,27.02,78.82,44.36,24.59,17.24,47.56,36.97,68.27,58.63,40.84,42.71,72.26,91.81,93.4,145.93,22.09,56.56,31.9,116.14,29.17,177.11-2.77,61.66-17.24,120.19-43,173.95-24.39,50.9-58.17,96.15-100.38,134.49-41.09,37.32-88.39,66.51-140.58,86.77-52.58,20.41-107.61,30.76-163.56,30.76-42.95,0-85.6-6.21-126.76-18.46-43.04-12.81-84.37-32.22-122.85-57.69-41.95-27.77-78.04-61.11-107.25-99.09-27.62-35.91-49.09-75.91-63.81-118.9-14.09-41.15-21.88-84.61-23.16-129.17-1.24-43.45,3.72-87.14,14.75-129.86,11.16-43.22,28.26-84.44,50.82-122.51,23.06-38.9,51.34-73.68,84.06-103.37,34.11-30.95,72.6-55.93,114.42-74.26,44.19-19.37,91.94-31.2,141.92-35.18,11.82-.94,23.81-1.42,35.64-1.42h0M845.74,858.3c85.81,0,169.33-36.39,223.41-97.34,51.85-58.44,73.87-134.18,63.69-219.02-13.66-113.81-114.26-175.23-201.99-175.24-59.94,0-112.74,26.74-148.67,75.3-37.43,50.58-44.48,120.46-17.54,173.9,19.99,39.66,56.06,62.4,98.97,62.4,11.28,0,23.15-1.53,35.28-4.55,29.24-7.27,60.34-36.79,69.34-65.79,5.36-17.28,2.48-32.85-8.32-45.02-7.2-8.12-13.84-12.06-20.31-12.06-10.64,0-18.88,10.57-27.59,21.76-9.4,12.06-19.11,24.54-32.42,24.54-4.55,0-9.19-1.42-14.2-4.34-20.67-12.04-24.59-30.42-24.25-43.72.76-29.01,22.44-62.58,49.37-76.43,16.88-8.69,33.8-13.09,50.29-13.09,38.43,0,72.92,24.32,92.27,65.06,11.85,24.95,16.79,54.36,13.92,82.81-3.17,31.42-15.62,61.23-35.99,86.21-18.3,22.44-40.19,39.63-65.06,51.1-23.25,10.72-48.39,16.16-74.72,16.16-22.75,0-45.47-4.06-67.52-12.08-21.98-7.99-42.32-19.54-60.45-34.33-18.67-15.23-34.24-33.31-46.29-53.72-12.72-21.56-21.16-45.2-25.07-70.25-6.44-41.25-4.39-80.84,6.1-117.65,9.74-34.2,26.5-65.36,49.83-92.62,51.19-59.81,130.43-95.52,212-95.53,48.77,0,95.92,12.91,136.34,37.33,21.6,13.05,41.37,29.4,58.74,48.6,18.35,20.28,34.21,43.94,47.14,70.32,19.98,40.78,31.46,82.6,34.1,124.33,2.49,39.35-2.85,78.48-15.87,116.33-15.92,46.25-42.64,89.28-79.42,127.89-35.95,37.74-79.45,69.14-129.28,93.35-1.76.86-3.61.91-5.24.96-1.95.06-3.79.12-4.94,1.56-1.21,1.51-1.33,4.17-.4,8.89l.18.92.92-.11c157.92-19.45,280.35-133.98,311.92-291.77,31.52-157.53-37.43-310.16-175.66-388.85-59-33.58-121.77-50.61-186.58-50.62-112.09,0-220.79,53.18-290.76,142.26-69.84,88.91-93.1,200.21-65.51,313.41,39.32,161.28,165.37,218.75,270.21,218.75M929.71,103.25c-11.83,0-23.74.47-35.72,1.42-410.71,32.71-561.73,582.8-212.22,814.17,79.19,52.42,165.74,76.32,250.16,76.32,226.26,0,437.07-171.81,448.52-426.94,11.48-255.77-200.75-464.98-450.74-464.97h0ZM845.74,857.3c-116.65,0-232.5-67.28-269.24-217.99-60.45-247.93,132.64-454.44,355.3-454.44,61.34,0,124.94,15.68,186.09,50.49,302.99,172.47,209.27,636.24-135.89,678.75-2.59-13.26,3.83-7.31,10.04-10.33,176.55-85.76,285.27-270.76,190.93-463.23-53.51-109.18-148.85-156.83-243.16-156.81-150.29.02-297.89,121.07-268.88,306.96,16.22,103.93,108.23,171.22,200.31,171.22,51.16,0,102.36-20.79,140.55-67.63,78-95.65,22.45-235.71-70.98-235.71-15.96,0-33.05,4.1-50.75,13.2-41.76,21.49-74.47,93.19-25.17,121.91,5.38,3.13,10.24,4.47,14.71,4.47,26.25,0,38.61-46.3,60.01-46.3,5.73,0,12.1,3.32,19.56,11.73,33.49,37.76-18.67,98.77-60.51,109.18-12.37,3.08-24.06,4.52-35.04,4.52-109.59,0-148.07-143.55-80.62-234.7,38.36-51.84,93.05-74.89,147.86-74.89,93.94,0,188.2,67.74,200.99,174.35,23.72,197.72-131.9,315.24-286.11,315.24h0Z"/>
</svg>