<?xml version="1.0" encoding="UTF-8"?>
<svg id="Camada_2" data-name="Camada 2" xmlns="http://www.w3.org/2000/svg" viewBox="0 0 1920 1080">
  <defs>
    <style>
      .cls-1 {
        fill: #5c57b4;
      }
    </style>
  </defs>
  <path class="cls-1" d="M816.63,156.07c293.26-15.43,490.41,262.73,388.25,536.79-104.47,280.25-484.46,334.93-668.38,99.89-191.86-245.19-37.03-619.99,280.14-636.68ZM793.96,210.9c-98.52,10.45-200.51,87.6-245.91,173.88-139.8,265.73,102.81,576.73,397.7,484.89,370.47-115.37,274.95-704.04-151.8-658.77Z"/>
  <path class="cls-1" d="M912.55,439.34c-17.69-3.8-20.82-37.63-1.8-43.78,12.5-4.04,94.6-3.13,111.74-1.57,17.94,1.63,25.19,9.21,27.38,27.52,2.63,21.99,2.92,88.38.09,110.03-2.72,20.77-32.43,28.08-40.53,11.15-5.57-11.64-.57-52.65-6.44-67.8-37.97,34.24-69.49,74.84-104.88,111.48-9.47,9.8-47.47,50.51-55.91,54.07-28.06,11.82-71.57-66.88-87.45-62.04l-115.88,123.3c-24.34,8.21-43.95-9.42-31.04-34.29l135.35-142.34c7.65-5.72,20.09-7.31,28.87-3.3,10.95,5.01,61.68,67.27,66.21,66.12l134.05-148.54c-17.35-2.52-43.75,3.43-59.74,0Z"/>
</svg>