<?xml version="1.0" encoding="UTF-8"?>
<svg id="Camada_2" data-name="Camada 2" xmlns="http://www.w3.org/2000/svg" viewBox="0 0 1920 1080">
  <defs>
    <style>
      .cls-1 {
        fill: #5c57b4;
      }
    </style>
  </defs>
  <path class="cls-1" d="M896.08,156.33c449.08-45.81,621.46,522.17,256.81,734.01-278.03,161.52-614.96-52.48-594.51-371.14,11.59-180.6,154.81-344.21,337.71-362.87ZM902.87,200.34c-130.84,12.18-248.49,123.68-284.51,246.85-78.62,268.89,169.64,521.3,440.14,436.75,392.47-122.67,289.05-725-155.63-683.6Z"/>
  <path class="cls-1" d="M930.62,666.38l-23.72-5.08,25.63-4.86-.49-41.2c-12.92-6.91-24.29.21-36.82.52-22.34.55-84.82,3.39-102.02-3.18-3.81-1.46-5.59,1.98-4.69-5.29l103.39-184.38c15.26-27.49,25.4-68.27,41.4-93.97,9.21-14.8,18.29-14.33,29.34-.87,15.1,18.39,32.98,54.74,48.45,76.77,40.32,57.42,95.94,121.83,130.75,180.62,3.54,5.98,15.57,21.73,3.76,23.4-15.42,2.17-37.81-.32-54.36-.16-11.62.11-21.95.1-33.57,0-22.04-.19-44.15.44-66.15.17,2.69-40.57-1.37-77.11-6.72-116.81-1.12-8.32,3.37-44.58-15.22-38.87-8.99,2.76-4.48,60.59-4.98,72.88-1.51,37.38-4.77,77.7-3.7,115.01.25,8.61,4.07,16.63,3.56,25.3h208.14c13.64,0,3.3,27.32.17,34.01-29.56,63.08-82.64,71.26-145.85,74.43-51.65,2.59-140.89,1.65-192.72-3.56-53.58-5.39-106.65-42.84-109.53-99.27l4.58-5.61h201.37Z"/>
</svg>