<?xml version="1.0" encoding="UTF-8"?>
<svg id="Camada_2" data-name="Camada 2" xmlns="http://www.w3.org/2000/svg" viewBox="0 0 1920 1080">
  <defs>
    <style>
      .cls-1 {
        fill: #5c57b4;
      }
    </style>
  </defs>
  <path class="cls-1" d="M793.11,201.82c301.24-24.16,516.68,248.37,423.01,536.58-98.52,303.13-500.38,377.12-699.09,126.34-197.32-249.02-43.64-637.28,276.08-662.92ZM796.53,256.86c-211.42,20.34-349.75,240.54-296.98,442.95,70.24,269.38,410.48,350.12,593.58,139.31,207.95-239.42,19.98-612.72-296.6-582.26Z"/>
  <path class="cls-1" d="M942.26,640.89l121.63,120.95c8.61,23.19-5.96,51.73-32.78,43.21l-129.41-128.76c-27.43,16.4-52.76,30.77-85.59,33.82-265.49,24.64-267.21-361.62-20.59-361.61,131.46,0,224.38,143.05,164.07,260.72-4.2,8.2-21.26,24.92-17.33,31.67ZM772.39,401.36c-146.2,17.64-139.26,256.02,12.95,260.65,192.35,5.86,180.8-284.03-12.95-260.65Z"/>
</svg>